<?xml version="1.0" encoding="utf-8"?>
<!-- Generator: Adobe Illustrator 26.3.1, SVG Export Plug-In . SVG Version: 6.00 Build 0)  -->
<svg version="1.1" id="Ebene_1" xmlns="http://www.w3.org/2000/svg" xmlns:xlink="http://www.w3.org/1999/xlink" x="0px" y="0px"
	 viewBox="0 0 64 64" style="enable-background:new 0 0 64 64;" xml:space="preserve">
<style type="text/css">
	.st0{fill-rule:evenodd;clip-rule:evenodd;fill:#E6007E;}
</style>
<g>
	<path class="st0" d="M32,17.5c-8,0-14.5,6.5-14.5,14.5S24,46.5,32,46.5S46.5,40,46.5,32S40,17.5,32,17.5z M32,40h-9.6
		c-0.8-0.9-1.4-1.9-1.9-3H32V40z M32,34H19.7c-0.1-0.7-0.2-1.3-0.2-2c0-0.3,0-0.7,0.1-1H32V34z M32,28.5H20c0.3-1.1,0.8-2.1,1.3-3
		H32V28.5z"/>
	<path class="st0" d="M31.8,0.2c-17.7,0-32,14.3-32,32c0,17.7,14.3,32,32,32c17.7,0,32-14.3,32-32C63.8,14.5,49.5,0.2,31.8,0.2z
		 M7,37.5v-10h4c-0.3,1.5-0.5,3-0.5,4.5c0,1.9,0.3,3.7,0.7,5.5H7z M51.7,51.7c-0.9,0.9-2,1.3-3.2,1.3s-2.3-0.4-3.2-1.3l-2.5-3.5
		c-3.1,2.1-6.8,3.3-10.8,3.3c-10.8,0-19.5-8.7-19.5-19.5c0-10.8,8.7-19.5,19.5-19.5c10.8,0,19.5,8.7,19.5,19.5c0,4-1.2,7.7-3.3,10.8
		l3.5,2.5C53.4,47.1,53.4,49.9,51.7,51.7z"/>
</g>
</svg>
