<?xml version="1.0" encoding="utf-8"?>
<!-- Generator: Adobe Illustrator 26.3.1, SVG Export Plug-In . SVG Version: 6.00 Build 0)  -->
<svg version="1.1" id="Ebene_1" xmlns="http://www.w3.org/2000/svg" xmlns:xlink="http://www.w3.org/1999/xlink" x="0px" y="0px"
	 viewBox="0 0 64 64" style="enable-background:new 0 0 64 64;" xml:space="preserve">
<style type="text/css">
	.st0{fill-rule:evenodd;clip-rule:evenodd;fill:#E6007E;}
</style>
<path class="st0" d="M31.9,1C14.3,1,0,15.3,0,32.9c0,14.1,9.1,26,21.8,30.2c1.6,0.3,2.2-0.7,2.2-1.5c0-0.8,0-2.8,0-5.4
	c-8.9,1.9-10.7-4.3-10.7-4.3c-1.4-3.7-3.5-4.7-3.5-4.7c-2.9-2,0.2-1.9,0.2-1.9c3.2,0.2,4.9,3.3,4.9,3.3c2.8,4.9,7.5,3.5,9.3,2.6
	c0.3-2.1,1.1-3.5,2-4.3c-7.1-0.8-14.5-3.5-14.5-15.7c0-3.5,1.2-6.3,3.3-8.6c-0.3-0.8-1.4-4,0.3-8.4c0,0,2.7-0.9,8.8,3.3
	c2.5-0.7,5.3-1.1,8-1.1c2.7,0,5.4,0.4,8,1.1c6.1-4.1,8.8-3.3,8.8-3.3c1.7,4.4,0.6,7.6,0.3,8.4c2,2.2,3.3,5.1,3.3,8.6
	c0,12.2-7.5,14.9-14.5,15.7c1.1,1,2.2,2.9,2.2,5.9c0,4.3,0,7.7,0,8.7c0,0.9,0.6,1.8,2.2,1.5c12.7-4.2,21.8-16.2,21.8-30.2
	C63.7,15.3,49.5,1,31.9,1z"/>
</svg>
