<?xml version="1.0" encoding="utf-8"?>
<!-- Generator: Adobe Illustrator 26.3.1, SVG Export Plug-In . SVG Version: 6.00 Build 0)  -->
<svg version="1.1" id="Ebene_1" xmlns="http://www.w3.org/2000/svg" xmlns:xlink="http://www.w3.org/1999/xlink" x="0px" y="0px"
	 viewBox="0 0 100 50" style="enable-background:new 0 0 100 50;" xml:space="preserve">
<style type="text/css">
	.st0{enable-background:new    ;}
	.st1{fill:#FFED00;}
</style>
<g class="st0">
	<path class="st1" d="M10.2,40.6c-0.5,0.1-1,0.1-1.8,0.1c-3.1,0-4.7-1.9-4.7-5.8v-3.2c0-2.4-0.9-3.6-2.7-4.2v-3.1
		c1.8-0.6,2.7-1.8,2.7-4.2v-2.9c0-3.8,1.7-5.8,4.7-5.8c0.7,0,1.3,0,1.8,0.1v2.9c-2.3,0-2.8,0.7-2.8,2.9v3.1c0,2.8-0.9,4.4-2.7,5.5
		c1.8,1,2.7,2.6,2.7,5.4v3.5c0,2.2,0.5,2.9,2.8,2.9V40.6z"/>
	<path class="st1" d="M13.5,12.9h4.4v19h8v3.5H13.5V12.9z"/>
	<path class="st1" d="M36.2,35.9c-6,0-9-2-9-11.6c0-9.6,3.2-11.8,9.2-11.8c6,0,9,2,9,11.6C45.4,33.7,42.2,35.9,36.2,35.9z
		 M36.3,15.9c-3.3,0-4.7,1.3-4.7,8.3s1.4,8.3,4.7,8.3c3.3,0,4.7-1.3,4.7-8.3S39.6,15.9,36.3,15.9z"/>
	<path class="st1" d="M65.3,34.6c-1.8,0.7-4.5,1.3-7.2,1.3c-6.6,0-9.3-2.1-9.3-11.6c0-9.5,3.7-11.8,10-11.8c2.1,0,4.2,0.3,6,0.8
		l-0.5,3.3c-1.9-0.4-3.5-0.7-5.3-0.7c-4,0-5.8,1.2-5.8,8.2c0,7.1,1.5,8.3,4.9,8.3c1.2,0,2.3-0.2,3-0.5v-6.3h-3.8v-3.4h8V34.6z"/>
	<path class="st1" d="M78,35.9c-6,0-9-2-9-11.6c0-9.6,3.2-11.8,9.2-11.8c6,0,9,2,9,11.6C87.2,33.7,83.9,35.9,78,35.9z M78.1,15.9
		c-3.3,0-4.7,1.3-4.7,8.3s1.4,8.3,4.7,8.3c3.3,0,4.7-1.3,4.7-8.3S81.4,15.9,78.1,15.9z"/>
	<path class="st1" d="M89.9,37.7c2.3,0,2.8-0.7,2.8-2.9v-3.5c0-2.8,0.9-4.4,2.8-5.4c-1.8-1.1-2.8-2.7-2.8-5.5v-3.1
		c0-2.2-0.5-2.9-2.8-2.9v-2.9c0.5-0.1,1-0.1,1.8-0.1c3.1,0,4.7,1.9,4.7,5.8v2.9c0,2.3,0.9,3.6,2.7,4.2v3.1c-1.8,0.6-2.7,1.8-2.7,4.2
		v3.2c0,3.8-1.7,5.8-4.7,5.8c-0.7,0-1.3,0-1.8-0.1V37.7z"/>
</g>
</svg>
