<?xml version="1.0" encoding="utf-8"?>
<!-- Generator: Adobe Illustrator 26.3.1, SVG Export Plug-In . SVG Version: 6.00 Build 0)  -->
<svg version="1.1" id="Ebene_1" xmlns="http://www.w3.org/2000/svg" xmlns:xlink="http://www.w3.org/1999/xlink" x="0px" y="0px"
	 viewBox="0 0 550 400" style="enable-background:new 0 0 550 400;" xml:space="preserve">
<style type="text/css">
	.st0{fill:#A8A8A8;}
	.st1{fill:#FFED00;}
	.st2{font-family:'CamingoDos-Bold';}
	.st3{font-size:46.2136px;}
	.st4{font-family:'NotoSerif-Medium';}
	.st5{font-size:18px;}
	.st6{fill:none;stroke:#FFED00;stroke-width:4;stroke-miterlimit:10;}
</style>
<rect class="st0" width="550" height="400"/>
<text transform="matrix(1 0 0 1 131.0005 236.9043)" class="st1 st2 st3">PLACEHOLDER</text>
<text transform="matrix(1 0 0 1 197.4292 274.5303)" class="st1 st4 st5">Image 550x400px </text>
<g>
	<polygon class="st1" points="284.8,112.3 266.9,132.1 256.8,120.9 236.5,143.2 256.7,143.2 277.1,143.2 312.9,143.2 	"/>
	<circle class="st1" cx="247.5" cy="116.1" r="6"/>
	<path class="st6" d="M317.1,153.2h-83.8c-3.2,0-5.9-2.6-5.9-5.9v-47.2c0-3.2,2.6-5.9,5.9-5.9h83.8c3.2,0,5.9,2.6,5.9,5.9v47.2
		C323,150.6,320.4,153.2,317.1,153.2z"/>
</g>
</svg>
