<?xml version="1.0" encoding="utf-8"?>
<!-- Generator: Adobe Illustrator 26.3.1, SVG Export Plug-In . SVG Version: 6.00 Build 0)  -->
<svg version="1.1" id="Ebene_1" xmlns="http://www.w3.org/2000/svg" xmlns:xlink="http://www.w3.org/1999/xlink" x="0px" y="0px"
	 viewBox="0 0 550 400" style="enable-background:new 0 0 550 400;" xml:space="preserve">
<style type="text/css">
	.st0{fill:#919090;}
	.st1{enable-background:new    ;}
	.st2{fill:#FFED00;}
	.st3{fill:none;stroke:#FFED00;stroke-width:4;stroke-miterlimit:10;}
</style>
<rect class="st0" width="550" height="400"/>
<g class="st1">
	<path class="st2" d="M134.4,204.8h9.6c8.1,0,11.4,1.7,11.4,9.2c0,7.4-3.4,10.4-11.8,10.4h-2.9v12.5h-6.2V204.8z M143.8,219.7
		c3.8,0,5.5-1.6,5.5-5.4s-1.4-4.8-5.3-4.8h-3.2v10.2H143.8z"/>
	<path class="st2" d="M160,204.8h6.2v27.1h11.5v5H160V204.8z"/>
	<path class="st2" d="M187.9,204.8h9.3l9.4,32.1h-6.5l-2.4-8.1h-10.7l-2.4,8.1h-6.1L187.9,204.8z M196.8,224.1l-2.3-8
		c-0.8-2.5-1.4-4.9-2.1-7.3h0c-0.7,2.6-1.3,4.9-2.1,7.5l-2.2,7.9H196.8z"/>
	<path class="st2" d="M229.2,236.3c-2.4,0.6-5.2,1.1-7.8,1.1c-8.8,0-12.7-3-12.7-16.5s4.7-16.8,13.2-16.8c2.5,0,5,0.4,7.3,1
		l-0.7,4.7c-2-0.6-4.1-0.9-6.1-0.9c-5.2,0-7.4,1.6-7.4,11.7c0,10.2,2.1,11.8,7.4,11.8c1.9,0,4-0.4,6.1-1L229.2,236.3z"/>
	<path class="st2" d="M233.9,204.8h18.4v4.9h-12.2v8.5h11.3v4.8h-11.3v9.2h12.2v4.9h-18.4V204.8z"/>
	<path class="st2" d="M257.9,204.8h6.2v13.1h11.7v-13.1h6.2v32.1h-6.2v-14h-11.7v14h-6.2V204.8z"/>
	<path class="st2" d="M300.6,237.6c-8.5,0-12.8-2.9-12.8-16.5s4.6-16.9,13.2-16.9c8.5,0,12.8,2.9,12.8,16.5S309.1,237.6,300.6,237.6
		z M300.8,209c-4.7,0-6.7,1.9-6.7,11.8c0,9.9,2,11.9,6.7,11.9c4.7,0,6.7-1.9,6.7-11.8C307.5,210.9,305.5,209,300.8,209z"/>
	<path class="st2" d="M319.6,204.8h6.2v27.1h11.5v5h-17.7V204.8z"/>
	<path class="st2" d="M341.2,204.8h10.6c10,0,13.7,2.8,13.7,15.8c0,12.8-4,16.3-13.9,16.3h-10.4V204.8z M351.6,232.1
		c5.5,0,7.6-1.7,7.6-11.3c0-9.6-2-11.1-7.6-11.1h-4.2v22.4H351.6z"/>
	<path class="st2" d="M371.2,204.8h18.4v4.9h-12.2v8.5h11.3v4.8h-11.3v9.2h12.2v4.9h-18.4V204.8z"/>
	<path class="st2" d="M395.2,204.8h10c8.8,0,11.7,1.8,11.7,8.5c0,4.9-2.1,7.7-7.1,8.6l8.2,15h-7.1l-7.3-14.1h-2.1v14.1h-6.2V204.8z
		 M405,218.1c4.5,0,5.7-1.5,5.7-4.7c0-3.1-1.3-4-5.7-4h-3.6v8.6H405z"/>
</g>
<g class="st1">
	<path class="st2" d="M198.1,274.5v-0.8h0.4c0.4,0,0.7-0.1,0.9-0.2c0.3-0.1,0.4-0.5,0.4-1v-8.7c0-0.6-0.1-0.9-0.4-1
		c-0.3-0.1-0.6-0.2-0.9-0.2h-0.4v-0.8h5.5v0.8h-0.4c-0.4,0-0.7,0.1-0.9,0.2c-0.3,0.1-0.4,0.5-0.4,1v8.7c0,0.6,0.1,0.9,0.4,1
		c0.3,0.1,0.6,0.2,0.9,0.2h0.4v0.8H198.1z"/>
	<path class="st2" d="M204.7,274.5v-0.8h0.2c0.4,0,0.7-0.1,1-0.2c0.3-0.1,0.4-0.5,0.4-1.1v-5.6c0-0.5-0.1-0.8-0.4-1
		c-0.3-0.1-0.6-0.2-1-0.2h-0.1v-0.8h3.1l0.2,1.4h0.1c0.4-0.7,0.8-1.1,1.2-1.3c0.4-0.2,1-0.3,1.5-0.3c0.6,0,1.1,0.1,1.6,0.4
		c0.5,0.2,0.8,0.7,1,1.2h0.2c0.4-0.7,0.8-1.1,1.3-1.3c0.5-0.2,1-0.3,1.6-0.3c0.9,0,1.6,0.3,2.2,0.8c0.5,0.6,0.8,1.4,0.8,2.7v4.2
		c0,0.6,0.1,0.9,0.4,1.1c0.2,0.2,0.6,0.2,1,0.2h0.1v0.8h-3.4v-6.1c0-0.8-0.1-1.4-0.4-1.8c-0.3-0.4-0.7-0.6-1.4-0.6
		c-0.5,0-0.8,0.1-1.1,0.4c-0.3,0.2-0.5,0.6-0.6,1c-0.1,0.4-0.2,0.8-0.2,1.3v3.8c0,0.6,0.1,0.9,0.4,1.1c0.2,0.2,0.6,0.2,1,0.2h0.1
		v0.8h-3.4v-6.1c0-0.8-0.1-1.4-0.4-1.8c-0.3-0.4-0.7-0.6-1.4-0.6c-0.5,0-0.9,0.1-1.2,0.4c-0.3,0.3-0.5,0.6-0.6,1.1s-0.2,0.9-0.2,1.4
		v3.7c0,0.5,0.1,0.8,0.4,1c0.3,0.1,0.6,0.2,1,0.2h0.1v0.8H204.7z"/>
	<path class="st2" d="M225.1,274.7c-0.8,0-1.5-0.2-2-0.7c-0.5-0.5-0.8-1.2-0.8-2.2c0-0.9,0.3-1.7,1-2.1c0.7-0.5,1.7-0.7,3.1-0.8
		l1.5-0.1v-1c0-0.4,0-0.8-0.1-1.1c-0.1-0.3-0.2-0.6-0.4-0.8c-0.2-0.2-0.5-0.3-1-0.3c-0.6,0-1,0.2-1.2,0.6c-0.2,0.4-0.3,0.8-0.3,1.4
		c-0.6,0-1-0.1-1.3-0.3c-0.3-0.2-0.4-0.5-0.4-0.9s0.2-0.8,0.5-1c0.3-0.3,0.7-0.4,1.2-0.6s1.1-0.2,1.7-0.2c1.1,0,2,0.2,2.6,0.7
		c0.6,0.5,0.9,1.3,0.9,2.4v4.6c0,0.5,0.1,0.8,0.3,1s0.5,0.3,0.9,0.3h0.1v0.8h-2.7l-0.3-1.5h-0.2c-0.3,0.3-0.5,0.6-0.7,0.9
		c-0.2,0.2-0.5,0.4-0.8,0.6C226,274.6,225.6,274.7,225.1,274.7z M225.7,273.5c0.7,0,1.2-0.2,1.6-0.7c0.4-0.4,0.6-1,0.6-1.8v-1.4
		l-1.1,0.1c-0.9,0-1.6,0.2-1.9,0.6s-0.5,0.9-0.5,1.6C224.3,273,224.8,273.5,225.7,273.5z"/>
	<path class="st2" d="M235.9,278.9c-1.3,0-2.3-0.2-2.9-0.7c-0.6-0.4-1-1.1-1-1.9c0-0.7,0.2-1.2,0.7-1.6c0.4-0.4,1-0.6,1.6-0.7
		c-0.3-0.1-0.5-0.3-0.7-0.5c-0.2-0.3-0.3-0.6-0.3-1c0-0.4,0.1-0.7,0.3-1c0.2-0.3,0.5-0.5,1-0.8c-0.5-0.2-0.9-0.6-1.2-1
		c-0.3-0.5-0.5-1.1-0.5-1.7c0-1,0.3-1.8,0.9-2.4s1.5-0.9,2.6-0.9c0.4,0,0.8,0.1,1.2,0.2c0.4,0.1,0.7,0.3,0.9,0.4
		c0.2-0.2,0.5-0.5,0.8-0.7c0.3-0.2,0.6-0.3,1-0.3c0.4,0,0.7,0.1,0.9,0.3c0.2,0.2,0.3,0.4,0.3,0.7c0,0.3-0.1,0.5-0.2,0.7
		c-0.2,0.2-0.4,0.3-0.8,0.3c0-0.2,0-0.3-0.1-0.4s-0.3-0.2-0.5-0.2c-0.3,0-0.5,0.1-0.7,0.2c0.2,0.3,0.4,0.6,0.5,0.9
		c0.1,0.4,0.2,0.8,0.2,1.3c0,0.9-0.3,1.6-0.8,2.2c-0.5,0.6-1.4,0.9-2.5,0.9c-0.1,0-0.3,0-0.5,0c-0.2,0-0.4,0-0.5-0.1
		c-0.2,0.1-0.4,0.3-0.6,0.4c-0.2,0.2-0.2,0.4-0.2,0.6c0,0.2,0.1,0.4,0.2,0.5s0.4,0.2,0.8,0.2h2.1c1.1,0,1.9,0.3,2.4,0.8
		s0.7,1.2,0.7,2c0,1.1-0.4,1.9-1.2,2.5C238.8,278.5,237.6,278.9,235.9,278.9z M235.9,277.9c0.8,0,1.5-0.1,1.9-0.3
		c0.5-0.2,0.8-0.4,1-0.7c0.2-0.3,0.3-0.7,0.3-1.1c0-0.5-0.2-0.8-0.5-1s-0.7-0.3-1.3-0.3h-1.9c-0.3,0-0.6,0-0.9,0.1s-0.5,0.2-0.7,0.5
		c-0.2,0.2-0.3,0.6-0.3,1c0,0.5,0.2,0.9,0.5,1.3C234.5,277.8,235.1,277.9,235.9,277.9z M236.3,270.2c0.6,0,0.9-0.2,1.2-0.5
		c0.2-0.4,0.3-0.9,0.3-1.7c0-0.8-0.1-1.4-0.3-1.8c-0.2-0.4-0.6-0.6-1.2-0.6c-0.6,0-0.9,0.2-1.2,0.6c-0.2,0.4-0.3,1-0.3,1.8
		c0,0.7,0.1,1.3,0.4,1.6C235.3,270,235.7,270.2,236.3,270.2z"/>
	<path class="st2" d="M246.8,274.7c-1.4,0-2.4-0.4-3.2-1.3c-0.8-0.9-1.1-2.1-1.1-3.6c0-1.7,0.4-3,1.1-3.8c0.7-0.9,1.7-1.3,3.1-1.3
		c1.2,0,2.1,0.4,2.8,1.1c0.7,0.7,1,1.8,1,3.2v0.8h-6c0,1.3,0.3,2.2,0.7,2.8c0.4,0.6,1.1,0.9,1.9,0.9c0.6,0,1.2-0.1,1.6-0.4
		c0.4-0.3,0.8-0.6,1-0.9c0.1,0,0.2,0.1,0.3,0.3c0.1,0.1,0.1,0.3,0.1,0.4c0,0.3-0.1,0.5-0.4,0.8c-0.2,0.3-0.6,0.5-1.1,0.7
		C248.1,274.6,247.5,274.7,246.8,274.7z M244.5,268.8h3.9c0-0.9-0.1-1.7-0.4-2.3c-0.3-0.6-0.7-0.8-1.4-0.8c-0.6,0-1.1,0.3-1.4,0.8
		C244.8,267,244.6,267.8,244.5,268.8z"/>
	<path class="st2" d="M260.4,274.7c-0.9,0-1.6-0.1-2.1-0.3c-0.5-0.2-0.9-0.4-1.1-0.7c-0.2-0.3-0.3-0.6-0.3-0.9
		c0-0.7,0.4-1.1,1.2-1.1c0,0.5,0.2,1,0.5,1.3c0.3,0.4,0.9,0.6,1.6,0.6c0.5,0,0.9-0.1,1.3-0.3c0.4-0.2,0.7-0.5,0.9-0.9
		c0.2-0.4,0.3-1,0.3-1.8c0-0.9-0.2-1.6-0.7-2.1c-0.5-0.5-1.1-0.7-1.9-0.7c-0.6,0-1,0-1.3,0.1s-0.6,0.2-0.8,0.3l-0.5-0.2l0.6-6.4h6.2
		l0.1,2.9h-0.8l-0.1-0.6c0-0.2-0.1-0.4-0.2-0.5c-0.1-0.1-0.3-0.2-0.7-0.2h-3.6l-0.3,3.8c0.2-0.1,0.4-0.1,0.8-0.2
		c0.4-0.1,0.8-0.1,1.3-0.1c0.8,0,1.5,0.1,2.2,0.4c0.6,0.3,1.1,0.7,1.5,1.3c0.4,0.6,0.5,1.3,0.5,2.1c0,0.9-0.2,1.6-0.6,2.2
		c-0.4,0.6-0.9,1.1-1.6,1.4C262,274.6,261.3,274.7,260.4,274.7z"/>
	<path class="st2" d="M270.5,274.7c-0.9,0-1.6-0.1-2.1-0.3c-0.5-0.2-0.9-0.4-1.1-0.7c-0.2-0.3-0.3-0.6-0.3-0.9
		c0-0.7,0.4-1.1,1.2-1.1c0,0.5,0.2,1,0.5,1.3c0.3,0.4,0.9,0.6,1.6,0.6c0.5,0,0.9-0.1,1.3-0.3c0.4-0.2,0.7-0.5,0.9-0.9
		c0.2-0.4,0.3-1,0.3-1.8c0-0.9-0.2-1.6-0.7-2.1c-0.5-0.5-1.1-0.7-1.9-0.7c-0.6,0-1,0-1.3,0.1s-0.6,0.2-0.8,0.3l-0.5-0.2l0.6-6.4h6.2
		l0.1,2.9h-0.8l-0.1-0.6c0-0.2-0.1-0.4-0.2-0.5c-0.1-0.1-0.3-0.2-0.7-0.2h-3.6l-0.3,3.8c0.2-0.1,0.4-0.1,0.8-0.2
		c0.4-0.1,0.8-0.1,1.3-0.1c0.8,0,1.5,0.1,2.2,0.4c0.6,0.3,1.1,0.7,1.5,1.3c0.4,0.6,0.5,1.3,0.5,2.1c0,0.9-0.2,1.6-0.6,2.2
		c-0.4,0.6-0.9,1.1-1.6,1.4C272.1,274.6,271.3,274.7,270.5,274.7z"/>
	<path class="st2" d="M281.2,274.7c-1,0-1.8-0.3-2.5-0.8c-0.6-0.6-1.1-1.3-1.4-2.3c-0.3-1-0.4-2.2-0.4-3.5s0.1-2.5,0.4-3.5
		c0.3-1,0.8-1.7,1.4-2.3c0.6-0.5,1.5-0.8,2.5-0.8c1,0,1.8,0.3,2.4,0.8s1.1,1.3,1.4,2.3c0.3,1,0.5,2.2,0.5,3.5s-0.2,2.5-0.5,3.5
		c-0.3,1-0.8,1.8-1.4,2.3C282.9,274.4,282.1,274.7,281.2,274.7z M281.2,273.7c0.8,0,1.4-0.5,1.7-1.5c0.3-1,0.5-2.4,0.5-4.1
		c0-1.8-0.2-3.1-0.5-4.1c-0.3-1-0.9-1.5-1.7-1.5c-0.8,0-1.4,0.5-1.7,1.5s-0.5,2.3-0.5,4.1c0,1.8,0.2,3.1,0.5,4.1
		C279.8,273.2,280.3,273.7,281.2,273.7z"/>
	<path class="st2" d="M286.3,274.5v-0.8h0.2c0.4,0,0.8-0.1,1-0.2s0.6-0.5,0.9-0.9l2.3-2.9l-2.3-3c-0.3-0.3-0.5-0.5-0.8-0.7
		s-0.5-0.2-0.8-0.2h-0.2v-0.8h4.9v0.8h-0.1c-0.4,0-0.7,0.1-0.8,0.2c-0.1,0.1-0.2,0.2-0.2,0.4c0,0.1,0,0.2,0.1,0.4s0.2,0.3,0.3,0.5
		l1.1,1.5l0.9-1.3c0.1-0.2,0.2-0.4,0.3-0.6s0.1-0.4,0.1-0.5c0-0.2-0.1-0.4-0.3-0.4c-0.2-0.1-0.4-0.1-0.7-0.1h-0.1v-0.8h4v0.8h-0.2
		c-0.3,0-0.6,0.1-0.9,0.2c-0.2,0.1-0.6,0.5-0.9,0.9l-1.9,2.4l2.6,3.5c0.3,0.3,0.5,0.6,0.7,0.7c0.2,0.1,0.5,0.2,0.7,0.2h0.2v0.8h-4.9
		v-0.8h0.1c0.7,0,1.1-0.2,1.1-0.6c0-0.1,0-0.3-0.1-0.4s-0.3-0.4-0.5-0.8l-1.2-1.5l-1.3,1.7c-0.1,0.1-0.2,0.3-0.3,0.5
		c-0.1,0.2-0.1,0.4-0.1,0.6c0,0.2,0.1,0.4,0.3,0.4s0.5,0.1,0.9,0.1h0.1v0.8H286.3z"/>
	<path class="st2" d="M300.6,274.5v-0.8h0.5c0.4,0,0.8-0.1,1-0.2c0.3-0.1,0.4-0.5,0.4-1.1v-1.4h-5.4v-0.8l5.4-8.5h1.9v8.3h2.1v1.1
		h-2.1v1.4c0,0.6,0.1,0.9,0.4,1.1c0.3,0.2,0.6,0.2,1,0.2h0.2v0.8H300.6z M298.5,270h4.1v-3.3c0-0.5,0-1.1,0-1.8
		c0-0.7,0.1-1.3,0.1-1.9c-0.1,0.1-0.2,0.3-0.3,0.5s-0.3,0.5-0.4,0.8c-0.2,0.3-0.3,0.5-0.5,0.8s-0.3,0.5-0.4,0.6L298.5,270z"/>
	<path class="st2" d="M312,274.7c-1,0-1.8-0.3-2.5-0.8c-0.6-0.6-1.1-1.3-1.4-2.3s-0.4-2.2-0.4-3.5s0.1-2.5,0.4-3.5
		c0.3-1,0.8-1.7,1.4-2.3c0.6-0.5,1.5-0.8,2.5-0.8c1,0,1.8,0.3,2.4,0.8c0.6,0.5,1.1,1.3,1.4,2.3c0.3,1,0.5,2.2,0.5,3.5
		s-0.2,2.5-0.5,3.5c-0.3,1-0.8,1.8-1.4,2.3C313.8,274.4,313,274.7,312,274.7z M312,273.7c0.8,0,1.4-0.5,1.7-1.5
		c0.3-1,0.5-2.4,0.5-4.1c0-1.8-0.2-3.1-0.5-4.1s-0.9-1.5-1.7-1.5c-0.8,0-1.4,0.5-1.7,1.5c-0.3,1-0.5,2.3-0.5,4.1
		c0,1.8,0.2,3.1,0.5,4.1C310.7,273.2,311.2,273.7,312,273.7z"/>
	<path class="st2" d="M322.1,274.7c-1,0-1.8-0.3-2.5-0.8c-0.6-0.6-1.1-1.3-1.4-2.3c-0.3-1-0.4-2.2-0.4-3.5s0.1-2.5,0.4-3.5
		c0.3-1,0.8-1.7,1.4-2.3c0.6-0.5,1.5-0.8,2.5-0.8c1,0,1.8,0.3,2.4,0.8s1.1,1.3,1.4,2.3c0.3,1,0.5,2.2,0.5,3.5s-0.2,2.5-0.5,3.5
		c-0.3,1-0.8,1.8-1.4,2.3C323.9,274.4,323.1,274.7,322.1,274.7z M322.1,273.7c0.8,0,1.4-0.5,1.7-1.5c0.3-1,0.5-2.4,0.5-4.1
		c0-1.8-0.2-3.1-0.5-4.1c-0.3-1-0.9-1.5-1.7-1.5c-0.8,0-1.4,0.5-1.7,1.5s-0.5,2.3-0.5,4.1c0,1.8,0.2,3.1,0.5,4.1
		C320.7,273.2,321.3,273.7,322.1,273.7z"/>
	<path class="st2" d="M327.4,278.9V278h0.2c0.2,0,0.5,0,0.7-0.1c0.2-0.1,0.4-0.2,0.5-0.4c0.1-0.2,0.2-0.4,0.2-0.8v-9.8
		c0-0.5-0.1-0.9-0.4-1c-0.3-0.1-0.6-0.2-1-0.2h-0.2v-0.8h3.3l0.2,1.6h0.1c0.3-0.5,0.6-1,1.1-1.3c0.4-0.3,1-0.5,1.7-0.5
		c1.2,0,2.1,0.4,2.7,1.2s0.9,2.1,0.9,3.8c0,1.7-0.3,3-0.9,3.8s-1.5,1.2-2.7,1.2c-0.7,0-1.3-0.1-1.7-0.4s-0.8-0.7-1.1-1.1h-0.1
		c0,0.3,0,0.7,0.1,1.1c0,0.4,0,0.7,0,1v1.6c0,0.3,0.1,0.6,0.2,0.8c0.1,0.2,0.3,0.3,0.5,0.3c0.2,0.1,0.4,0.1,0.7,0.1h0.1v0.8H327.4z
		 M333.3,273.5c0.7,0,1.3-0.3,1.6-1c0.3-0.7,0.5-1.6,0.5-2.9s-0.2-2.2-0.5-2.8s-0.8-1-1.6-1c-0.9,0-1.5,0.3-1.8,0.9
		c-0.3,0.6-0.5,1.6-0.5,2.9c0,1.2,0.2,2.2,0.5,2.8C331.8,273.2,332.4,273.5,333.3,273.5z"/>
	<path class="st2" d="M338.5,274.5v-0.8h0.2c0.4,0,0.8-0.1,1-0.2c0.3-0.2,0.6-0.5,0.9-0.9l2.3-2.9l-2.3-3c-0.3-0.3-0.5-0.5-0.8-0.7
		s-0.5-0.2-0.8-0.2h-0.2v-0.8h4.9v0.8h-0.1c-0.4,0-0.7,0.1-0.8,0.2c-0.1,0.1-0.2,0.2-0.2,0.4c0,0.1,0,0.2,0.1,0.4
		c0.1,0.1,0.2,0.3,0.3,0.5l1.1,1.5l0.9-1.3c0.1-0.2,0.2-0.4,0.3-0.6c0.1-0.2,0.1-0.4,0.1-0.5c0-0.2-0.1-0.4-0.3-0.4
		c-0.2-0.1-0.4-0.1-0.7-0.1h-0.1v-0.8h4v0.8h-0.2c-0.3,0-0.6,0.1-0.9,0.2c-0.2,0.1-0.6,0.5-0.9,0.9l-1.9,2.4l2.6,3.5
		c0.3,0.3,0.5,0.6,0.7,0.7c0.2,0.1,0.5,0.2,0.7,0.2h0.2v0.8H344v-0.8h0.1c0.7,0,1.1-0.2,1.1-0.6c0-0.1,0-0.3-0.1-0.4
		c-0.1-0.2-0.3-0.4-0.5-0.8l-1.2-1.5l-1.3,1.7c-0.1,0.1-0.2,0.3-0.3,0.5c-0.1,0.2-0.1,0.4-0.1,0.6c0,0.2,0.1,0.4,0.3,0.4
		c0.2,0.1,0.5,0.1,0.9,0.1h0.1v0.8H338.5z"/>
</g>
<g>
	<polygon class="st2" points="284.8,112.3 266.9,132.1 256.8,120.9 236.5,143.2 256.7,143.2 277.1,143.2 312.9,143.2 	"/>
	<circle class="st2" cx="247.5" cy="116.1" r="6"/>
	<path class="st3" d="M317.1,153.2h-83.8c-3.2,0-5.9-2.6-5.9-5.9v-47.2c0-3.2,2.6-5.9,5.9-5.9h83.8c3.2,0,5.9,2.6,5.9,5.9v47.2
		C323,150.6,320.4,153.2,317.1,153.2z"/>
</g>
</svg>
